<svg width="484" height="421" xmlns="http://www.w3.org/2000/svg" xmlns:xlink="http://www.w3.org/1999/xlink" xml:space="preserve" overflow="hidden"><g><path d="M206.373 80.0681C236.463 62.5815 251.114 33.5947 268.561 0 277.462 9.60975 282.267 33.2403 280.297 66.2836 364.146 60.8092 417.276 107.952 483.953 37.0605 455.282 147.77 351.78 84.873 308.536 94.5221 375.292 102.084 394.236 138.948 471.114 125.872 444.648 157.734 386.083 151.275 336.774 128.826 345.478 152.771 434.565 168.249 416.409 239.732 399.238 210.233 383.13 192.116 368.006 184.279 399.159 238.156 396.717 287.268 367.652 340.949 361.232 352.764 353.395 363.516 343.824 372.811 357.136 343.391 363.595 315.98 357.924 292.152 352.528 312.632 251.665 511.759 305.503 348.629 197.984 454.258 93.3406 346.739 0 420.151 31.1529 274.154 200.781 331.3 263.244 263.638 276.083 249.696 280.731 230.831 275.217 217.243 259.148 177.702 202.868 189.32 182.467 213.462 169.904 232.8 145.564 254.304 125.596 230.358 122.327 226.459 120.476 221.457 119.964 215.471 130.047 219.764 140.129 221.418 150.211 216.495L142.138 207.437C152.89 204.404 164.902 207.791 174.393 197.906L209.682 174.708C216.416 169.746 201.293 166.556 165.335 164.075 162.302 171.912 163.681 179.08 172.385 185.263 162.066 186.642 153.126 183.885 146.155 175.181 142.059 178.371 142.65 180.616 153.638 198.063 143.752 198.496 133.867 194.558 123.982 188.296 121.697 196.252 125.045 204.207 125.596 212.163 118.389 210.075 111.772 206.649 105.825 201.844 99.839 197 94.4434 190.817 89.7172 183.255 86.4484 175.851 86.4877 170.297 89.0083 166.162 90.5443 163.602 93.0255 161.593 96.2944 159.979 108.504 153.953 114.647 154.662 128.944 145.131 142.453 136.151 156.237 125.399 167.974 110.906 186.957 87.433 186.445 91.6471 206.373 80.0681L206.373 80.0681ZM203.577 116.459C198.89 118.389 198.536 120.673 192.077 122.446 190.147 122.958 186.76 125.872 185.697 127.565 182.388 132.961 194.44 135.836 198.063 129.377 198.969 127.802 203.026 120.319 203.341 119.413 203.656 118.468 204.483 117.719 203.853 116.656 203.774 116.656 203.735 116.42 203.577 116.459L203.577 116.459Z" fill="#FF4155" fill-rule="evenodd" transform="matrix(-1.0001 0 0 1 484 0.424581)"/></g></svg>